<svg width="80" height="54" viewBox="0 0 80 54" fill="none" xmlns="http://www.w3.org/2000/svg">
<path d="M27.7897 6.78215C16.6344 13.2227 12.8042 27.5172 19.2447 38.6725C19.3103 38.7899 19.3986 38.8931 19.5044 38.9761C19.6103 39.0591 19.7316 39.1203 19.8613 39.156C19.9909 39.1918 20.1264 39.2014 20.2598 39.1843C20.3933 39.1672 20.522 39.1238 20.6385 39.0565C20.755 38.9892 20.8569 38.8995 20.9384 38.7925C21.0199 38.6855 21.0794 38.5634 21.1133 38.4332C21.1472 38.303 21.1548 38.1674 21.1359 38.0342C21.1169 37.9011 21.0717 37.773 21.0028 37.6575C15.1108 27.4523 18.5996 14.4321 28.8047 8.54021C35.0813 4.91642 42.4163 4.8572 48.5115 7.71084L44.7996 9.85387C44.6822 9.91947 44.579 10.0078 44.496 10.1136C44.4129 10.2194 44.3518 10.3407 44.3161 10.4704C44.2803 10.6001 44.2707 10.7356 44.2878 10.869C44.3049 11.0024 44.3483 11.1311 44.4156 11.2476C44.4828 11.3641 44.5726 11.4661 44.6796 11.5476C44.7866 11.6291 44.9087 11.6885 45.0389 11.7224C45.1691 11.7563 45.3047 11.764 45.4379 11.745C45.571 11.7261 45.6991 11.6808 45.8146 11.6119L52.8469 7.55187L48.7868 0.519642C48.7205 0.401107 48.6311 0.297079 48.5239 0.213719C48.4167 0.130358 48.2938 0.0693602 48.1626 0.034336C48.0314 -0.000688167 47.8945 -0.00902468 47.76 0.00981783C47.6255 0.0286603 47.4961 0.0742997 47.3796 0.144034C47.1489 0.282099 46.9823 0.506067 46.9166 0.766782C46.8508 1.0275 46.8911 1.30366 47.0288 1.53466L49.5931 5.97615C42.8744 2.74516 34.7266 2.77713 27.7897 6.78215ZM58.2728 14.9515C58.0421 15.0896 57.8755 15.3136 57.8098 15.5743C57.744 15.835 57.7843 16.1112 57.9219 16.3421C63.8139 26.5473 60.3251 39.5675 50.12 45.4594C43.8434 49.0832 36.5084 49.1424 30.4132 46.2888L34.1251 44.1457C34.2425 44.0801 34.3457 43.9918 34.4287 43.886C34.5118 43.7802 34.5729 43.6589 34.6086 43.5292C34.6444 43.3995 34.654 43.264 34.6369 43.1306C34.6198 42.9972 34.5764 42.8685 34.5091 42.752C34.4419 42.6355 34.3521 42.5335 34.2451 42.452C34.1381 42.3705 34.016 42.3111 33.8858 42.2772C33.7556 42.2433 33.62 42.2356 33.4868 42.2546C33.3537 42.2735 33.2256 42.3188 33.1101 42.3877L26.0778 46.4477L30.1379 53.48C30.2035 53.5974 30.2918 53.7006 30.3976 53.7836C30.5035 53.8666 30.6248 53.9278 30.7544 53.9635C30.8841 53.9993 31.0196 54.0089 31.153 53.9918C31.2865 53.9747 31.4152 53.9313 31.5317 53.864C31.6481 53.7967 31.7501 53.707 31.8316 53.6C31.9131 53.493 31.9726 53.3708 32.0065 53.2407C32.0404 53.1105 32.048 52.9749 32.0291 52.8417C32.0101 52.7085 31.9648 52.5805 31.8959 52.4649L29.3316 48.0234C36.0503 51.2544 44.1981 51.2225 51.135 47.2174C62.2903 40.7769 66.1205 26.4824 59.68 15.3271C59.6137 15.2086 59.5243 15.1046 59.4171 15.0212C59.3099 14.9379 59.187 14.8769 59.0558 14.8418C58.9246 14.8068 58.7877 14.7985 58.6532 14.8173C58.5187 14.8362 58.3893 14.8818 58.2728 14.9515Z" fill="black"/>
<mask id="path-2-outside-1_388_4402" maskUnits="userSpaceOnUse" x="18.1748" y="6.72754" width="42" height="41" fill="black">
<rect fill="white" x="18.1748" y="6.72754" width="42" height="41"/>
<path d="M22.7616 36.6419C17.4363 27.4183 20.5968 15.623 29.8205 10.2978C34.1752 7.78356 39.0975 7.18213 43.6467 8.196C42.3056 9.07457 41.8593 10.8493 42.6708 12.2549C43.5118 13.7115 45.3739 14.2104 46.8304 13.3695L50.5371 11.2294C52.7683 12.794 54.7122 14.8409 56.1647 17.3567C61.4899 26.5803 58.3294 38.3756 49.1058 43.7008C44.7598 46.2099 39.8475 46.8133 35.3057 45.8081L35.1409 45.9033C36.5974 45.0623 37.0964 43.2002 36.2554 41.7437C35.4145 40.2871 33.5524 39.7882 32.0958 40.6291L28.3891 42.7692C26.1579 41.2046 24.2141 39.1577 22.7616 36.6419Z"/>
</mask>
<path d="M22.7616 36.6419C17.4363 27.4183 20.5968 15.623 29.8205 10.2978C34.1752 7.78356 39.0975 7.18213 43.6467 8.196C42.3056 9.07457 41.8593 10.8493 42.6708 12.2549C43.5118 13.7115 45.3739 14.2104 46.8304 13.3695L50.5371 11.2294C52.7683 12.794 54.7122 14.8409 56.1647 17.3567C61.4899 26.5803 58.3294 38.3756 49.1058 43.7008C44.7598 46.2099 39.8475 46.8133 35.3057 45.8081L35.1409 45.9033C36.5974 45.0623 37.0964 43.2002 36.2554 41.7437C35.4145 40.2871 33.5524 39.7882 32.0958 40.6291L28.3891 42.7692C26.1579 41.2046 24.2141 39.1577 22.7616 36.6419Z" fill="#EC5E28"/>
<path d="M29.8205 10.2978L29.3205 9.43173L29.8205 10.2978ZM22.7616 36.6419L21.8956 37.1419L22.7616 36.6419ZM28.3891 42.7692L27.815 43.5879L28.337 43.954L28.8891 43.6352L28.3891 42.7692ZM32.0958 40.6291L32.5958 41.4951H32.5958L32.0958 40.6291ZM36.2554 41.7437L37.1214 41.2437L36.2554 41.7437ZM35.3057 45.8081L35.5218 44.8318L35.1423 44.7478L34.8057 44.9421L35.3057 45.8081ZM49.1058 43.7008L49.6058 44.5669L49.1058 43.7008ZM56.1647 17.3567L57.0307 16.8567L56.1647 17.3567ZM50.5371 11.2294L51.1112 10.4107L50.5892 10.0446L50.0371 10.3634L50.5371 11.2294ZM46.8304 13.3695L46.3304 12.5034L46.8304 13.3695ZM42.6708 12.2549L43.5369 11.7549L42.6708 12.2549ZM43.6467 8.196L44.1947 9.03248L46.1752 7.73499L43.8642 7.21995L43.6467 8.196ZM29.3205 9.43173C19.6186 15.0331 16.2942 27.44 21.8956 37.1419L23.6276 36.1419C18.5785 27.3966 21.5751 16.2129 30.3205 11.1638L29.3205 9.43173ZM21.8956 37.1419C23.4248 39.7906 25.4709 41.9442 27.815 43.5879L28.9633 41.9504C26.845 40.465 25.0034 38.5248 23.6276 36.1419L21.8956 37.1419ZM28.8891 43.6352L32.5958 41.4951L31.5958 39.7631L27.8891 41.9031L28.8891 43.6352ZM32.5958 41.4951C33.5741 40.9303 34.8246 41.2654 35.3894 42.2437L37.1214 41.2437C36.0044 39.3088 33.5307 38.646 31.5958 39.7631L32.5958 41.4951ZM35.3894 42.2437C35.9542 43.2219 35.6191 44.4725 34.6409 45.0373L35.6409 46.7693C37.5757 45.6522 38.2385 43.1785 37.1214 41.2437L35.3894 42.2437ZM35.6409 46.7693L35.8057 46.6742L34.8057 44.9421L34.6409 45.0373L35.6409 46.7693ZM35.0896 46.7845C39.8628 47.8409 45.0323 47.2074 49.6058 44.5669L48.6058 42.8348C44.4874 45.2125 39.8323 45.7858 35.5218 44.8318L35.0896 46.7845ZM49.6058 44.5669C59.3077 38.9654 62.6321 26.5586 57.0307 16.8567L55.2986 17.8567C60.3478 26.602 57.3511 37.7857 48.6058 42.8348L49.6058 44.5669ZM57.0307 16.8567C55.5015 14.208 53.4554 12.0544 51.1112 10.4107L49.963 12.0482C52.0813 13.5336 53.9229 15.4738 55.2986 17.8567L57.0307 16.8567ZM50.0371 10.3634L46.3304 12.5034L47.3304 14.2355L51.0371 12.0954L50.0371 10.3634ZM46.3304 12.5034C45.3522 13.0682 44.1016 12.7332 43.5369 11.7549L41.8048 12.7549C42.9219 14.6898 45.3956 15.3526 47.3304 14.2355L46.3304 12.5034ZM43.5369 11.7549C42.9956 10.8174 43.2888 9.62594 44.1947 9.03248L43.0987 7.35953C41.3224 8.52321 40.7231 10.8813 41.8048 12.7549L43.5369 11.7549ZM43.8642 7.21995C39.0831 6.1544 33.9031 6.78594 29.3205 9.43173L30.3205 11.1638C34.4473 8.78119 39.1118 8.20986 43.4291 9.17205L43.8642 7.21995Z" fill="white" mask="url(#path-2-outside-1_388_4402)"/>
<rect x="0.5" y="13.54" width="78.76" height="26.92" rx="2.5" fill="black" stroke="white"/>
<path d="M22.5708 28.5339C22.5708 26.9657 21.2619 26.4084 20.4583 26.3436V26.3048C21.4303 26.0844 22.2727 25.3716 22.2727 24.1275C22.2727 22.65 21.1323 21.7299 19.2271 21.7299C18.2551 21.7299 17.4127 21.9113 16.8295 22.1576V23.5313C17.4257 23.1684 17.9959 22.987 18.631 22.987C19.6159 22.987 20.2121 23.4665 20.2121 24.4126C20.2121 25.3716 19.6289 25.8252 18.7217 25.8252H17.9959V27.1342H18.6699C19.8492 27.1342 20.5102 27.6785 20.5102 28.6116C20.5102 29.5577 19.8881 30.1409 18.7087 30.1409C18.0996 30.1409 17.4127 29.9724 16.7129 29.5836V31.0352C17.2572 31.2296 17.983 31.3851 18.9291 31.3851C21.1841 31.3851 22.5708 30.3094 22.5708 28.5339Z" fill="white" fill-opacity="0.92"/>
<path d="M30.567 26.564C30.567 23.1814 29.2969 21.7299 27.0937 21.7299C24.9034 21.7299 23.6334 23.1814 23.6334 26.564C23.6334 29.9336 24.9034 31.3851 27.0937 31.3851C29.2969 31.3851 30.567 29.9336 30.567 26.564ZM25.7458 26.564C25.7458 23.6868 26.2383 22.8963 27.0937 22.8963C27.962 22.8963 28.4545 23.6868 28.4545 26.564C28.4545 29.4411 27.962 30.2187 27.0937 30.2187C26.2383 30.2187 25.7458 29.4411 25.7458 26.564Z" fill="white" fill-opacity="0.92"/>
<path d="M37.2174 31.3203C40.4704 31.3203 42.1034 29.7262 42.1034 26.4344C42.1034 23.311 40.7814 21.6392 37.1656 21.6392H34.7291V31.3203H37.2174ZM36.8157 22.8444H37.4248C38.9152 22.8444 39.9131 23.6868 39.9131 26.4214C39.9131 29.3374 38.9411 30.115 37.5026 30.115H36.8157V22.8444Z" fill="white" fill-opacity="0.92"/>
<path d="M46.0303 30.1539C45.3045 30.1539 44.9805 29.791 44.9805 29.1041C44.9805 28.4172 45.2786 28.1192 46.0173 28.0544L47.1319 27.9507V29.8299C46.8856 29.9854 46.5227 30.1539 46.0303 30.1539ZM47.2096 31.3203H49.1666V26.1492C49.1666 24.4385 48.0909 23.5961 45.9655 23.5961C45.0453 23.5961 44.1899 23.7516 43.6586 23.9331V25.3976C44.2677 25.0865 44.9935 24.8662 45.7192 24.8662C46.6783 24.8662 47.1319 25.3457 47.1319 26.227V26.8361L45.136 27.1472C43.6975 27.3675 43.0235 28.0803 43.0235 29.2856C43.0235 30.5816 43.8271 31.3851 45.149 31.3851C46.2635 31.3851 46.8727 30.9315 47.2096 30.5945V31.3203Z" fill="white" fill-opacity="0.92"/>
<path d="M55.3982 30.0243L57.3163 23.6609H55.6834L54.7373 27.0176C54.3614 28.3913 54.0893 29.5059 54.0634 29.7262H54.0115C53.9727 29.4929 53.6746 28.3913 53.2858 27.0176L52.3138 23.6609H50.1106L52.573 31.087H53.4672C53.0784 32.0201 52.5211 32.5385 51.5362 32.5385C51.2122 32.5385 50.9141 32.4996 50.5771 32.396V33.692C50.9141 33.7697 51.2122 33.8086 51.588 33.8086C53.6486 33.8086 54.6725 32.396 55.3982 30.0243Z" fill="white" fill-opacity="0.92"/>
<path d="M63.0009 29.0264C63.0009 26.9528 59.9553 26.6547 59.9553 25.4883C59.9553 25.0865 60.2534 24.8014 60.9403 24.8014C61.5624 24.8014 62.2622 25.0217 62.7547 25.3198V23.8683C62.3141 23.7128 61.6531 23.5961 60.8885 23.5961C59.1129 23.5961 58.0243 24.5552 58.0243 25.8382C58.0243 28.0932 61.0699 28.171 61.0699 29.4281C61.0699 29.9076 60.6941 30.1928 59.9683 30.1928C59.2685 30.1928 58.5168 29.9076 57.9984 29.5448V31.0611C58.3742 31.2296 59.1389 31.3851 59.9424 31.3851C61.8086 31.3851 63.0009 30.452 63.0009 29.0264Z" fill="white" fill-opacity="0.92"/>
</svg>
