<svg width="80" height="54" viewBox="0 0 80 54" fill="none" xmlns="http://www.w3.org/2000/svg">
<path fill-rule="evenodd" clip-rule="evenodd" d="M28.8078 3.15508C30.0212 1.14915 32.1331 0.0241631 34.3201 0.000339729C35.4112 -0.0107778 36.5202 0.250758 37.5462 0.816166L38.2597 1.20702C39.2745 1.76607 40.4849 1.76607 41.4982 1.20702L42.2116 0.816166C45.2928 -0.876882 49.133 0.148491 50.9531 3.15818L51.3719 3.84993C51.9722 4.84257 53.0229 5.44694 54.1792 5.46917L54.9919 5.48778C58.5066 5.56084 61.3167 8.3693 61.3913 11.8872L61.4069 12.6999C61.4307 13.8562 62.035 14.9069 63.0261 15.5072L63.721 15.926C66.7306 17.7461 67.7592 21.5894 66.063 24.6706L65.6721 25.3809C65.1146 26.3958 65.1146 27.6045 65.6721 28.6194L66.063 29.3329C67.7576 32.414 66.7306 36.2542 63.7241 38.0743L63.0261 38.4962C62.0366 39.0965 61.4307 40.1442 61.4069 41.3004L61.3913 42.1131C61.3183 45.6295 58.5082 48.4426 54.9919 48.5157L54.1792 48.5312C53.0214 48.555 51.9722 49.1594 51.3719 50.1504L50.95 50.8453C49.1315 53.8518 45.2912 54.8788 42.2116 53.1842L41.4982 52.7964C40.4833 52.2374 39.2729 52.2343 38.2597 52.7933L37.5462 53.1873C36.544 53.7384 35.4587 54 34.3915 54C32.179 54 30.0339 52.8719 28.8078 50.8422L28.386 50.1504C27.7856 49.1578 26.738 48.5534 25.5817 48.5312L24.769 48.5126C21.2543 48.4395 18.4411 45.631 18.3665 42.1131L18.351 41.3004C18.3271 40.1442 17.7228 39.0934 16.7317 38.4931L16.0369 38.0743C13.0272 36.2542 11.9986 32.4109 13.6948 29.3298L14.0857 28.6194C14.6432 27.6045 14.6432 26.3958 14.0857 25.3809L13.6948 24.6706C12.0002 21.5894 13.0272 17.7461 16.0338 15.926L16.7317 15.5072C17.7212 14.9069 18.3271 13.8562 18.351 12.6999L18.3665 11.8872C18.4395 8.37088 21.2496 5.56084 24.7659 5.48778L25.5786 5.46917C26.7365 5.44535 27.7856 4.84408 28.386 3.85303L28.8078 3.15508ZM29.8766 5.4552C30.973 3.64278 32.8811 2.62632 34.8571 2.6048C35.843 2.59475 36.845 2.83106 37.772 3.34192L38.4166 3.69507C39.3336 4.20019 40.4272 4.20019 41.3427 3.69507L41.9873 3.34192C44.7713 1.8122 48.241 2.73866 49.8855 5.458L50.2639 6.08301C50.8063 6.97989 51.7557 7.52596 52.8004 7.54605L53.5347 7.56286C56.7104 7.62888 59.2493 10.1664 59.3168 13.3449L59.3308 14.0793C59.3523 15.1239 59.8984 16.0733 60.7938 16.6157L61.4217 16.9941C64.141 18.6386 65.0703 22.1112 63.5377 24.8951L63.1846 25.5369C62.6809 26.4539 62.6809 27.546 63.1846 28.463L63.5377 29.1076C65.0689 31.8915 64.1409 35.3612 61.4245 37.0058L60.7938 37.3869C59.8998 37.9294 59.3523 38.8759 59.3308 39.9206L59.3168 40.6549C59.2508 43.832 56.7118 46.3738 53.5347 46.4398L52.8004 46.4538C51.7543 46.4754 50.8063 47.0214 50.2639 47.9169L49.8827 48.5447C48.2396 51.2612 44.7698 52.1891 41.9873 50.658L41.3427 50.3076C40.4257 49.8025 39.3322 49.7997 38.4166 50.3048L37.772 50.6608C36.8665 51.1587 35.8859 51.3951 34.9216 51.3951C32.9226 51.3951 30.9845 50.3758 29.8766 48.5419L29.4955 47.9169C28.953 47.02 28.0065 46.4739 26.9618 46.4538L26.2274 46.437C23.0518 46.371 20.51 43.8335 20.4426 40.6549L20.4285 39.9206C20.407 38.8759 19.8609 37.9266 18.9655 37.3841L18.3377 37.0058C15.6183 35.3612 14.689 31.8887 16.2216 29.1048L16.5747 28.463C17.0784 27.546 17.0784 26.4539 16.5747 25.5369L16.2216 24.8951C14.6904 22.1112 15.6184 18.6386 18.3349 16.9941L18.9655 16.6157C19.8595 16.0733 20.407 15.1239 20.4285 14.0793L20.4426 13.3449C20.5086 10.1678 23.0475 7.62888 26.2246 7.56286L26.959 7.54605C28.0051 7.52452 28.953 6.98126 29.4955 6.08582L29.8766 5.4552Z" fill="black"/>
<mask id="path-2-inside-1_388_4389" fill="white">
<path d="M34.9898 3.24005C33.0652 3.26101 31.2067 4.25102 30.1389 6.01629L29.7677 6.63051C29.2393 7.50266 28.3161 8.03179 27.2972 8.05275L26.5819 8.06913C23.4875 8.13343 21.0146 10.6063 20.9503 13.7008L20.9366 14.416C20.9157 15.4335 20.3824 16.3582 19.5117 16.8865L18.8974 17.255C16.2516 18.8568 15.3478 22.239 16.8391 24.9505L17.1831 25.5756C17.6737 26.4687 17.6737 27.5324 17.1831 28.4256L16.8391 29.0507C15.3464 31.7622 16.2516 35.1444 18.9002 36.7461L19.5117 37.1146C20.3838 37.643 20.9157 38.5676 20.9366 39.5851L20.9503 40.3004C21.016 43.3962 23.4916 45.8677 26.5847 45.932L27.2999 45.9484C28.3174 45.968 29.2393 46.4998 29.7677 47.3734L30.1389 47.9821C31.2179 49.7684 33.1057 50.7611 35.0526 50.7611C35.9919 50.7611 36.9469 50.5309 37.8289 50.0459L38.4567 49.6992C39.3485 49.2072 40.4136 49.2099 41.3067 49.7019L41.9346 50.0432C44.6447 51.5345 48.0242 50.6307 49.6245 47.9849L49.9958 47.3734C50.5241 46.5012 51.4474 45.9694 52.4663 45.9484L53.1815 45.9348C56.276 45.8705 58.7489 43.3948 58.8132 40.3004L58.8268 39.5851C58.8478 38.5676 59.381 37.6457 60.2518 37.1174L60.866 36.7461C63.5118 35.1444 64.4156 31.7649 62.9243 29.0534L62.5803 28.4256C62.0898 27.5324 62.0898 26.4687 62.5803 25.5756L62.9243 24.9505C64.417 22.239 63.5119 18.8568 60.8633 17.255L60.2518 16.8865C59.3796 16.3582 58.8478 15.4335 58.8268 14.416L58.8132 13.7008C58.7475 10.6049 56.2746 8.13343 53.1815 8.06913L52.4663 8.05275C51.4488 8.03319 50.5241 7.50133 49.9958 6.62778L49.6273 6.01902C48.0255 3.37042 44.6461 2.46807 41.9346 3.95799L41.3067 4.30195C40.415 4.79394 39.3499 4.79394 38.4567 4.30195L37.8289 3.95799C36.926 3.46042 35.9501 3.23026 34.9898 3.24005Z"/>
</mask>
<path d="M34.9898 3.24005C33.0652 3.26101 31.2067 4.25102 30.1389 6.01629L29.7677 6.63051C29.2393 7.50266 28.3161 8.03179 27.2972 8.05275L26.5819 8.06913C23.4875 8.13343 21.0146 10.6063 20.9503 13.7008L20.9366 14.416C20.9157 15.4335 20.3824 16.3582 19.5117 16.8865L18.8974 17.255C16.2516 18.8568 15.3478 22.239 16.8391 24.9505L17.1831 25.5756C17.6737 26.4687 17.6737 27.5324 17.1831 28.4256L16.8391 29.0507C15.3464 31.7622 16.2516 35.1444 18.9002 36.7461L19.5117 37.1146C20.3838 37.643 20.9157 38.5676 20.9366 39.5851L20.9503 40.3004C21.016 43.3962 23.4916 45.8677 26.5847 45.932L27.2999 45.9484C28.3174 45.968 29.2393 46.4998 29.7677 47.3734L30.1389 47.9821C31.2179 49.7684 33.1057 50.7611 35.0526 50.7611C35.9919 50.7611 36.9469 50.5309 37.8289 50.0459L38.4567 49.6992C39.3485 49.2072 40.4136 49.2099 41.3067 49.7019L41.9346 50.0432C44.6447 51.5345 48.0242 50.6307 49.6245 47.9849L49.9958 47.3734C50.5241 46.5012 51.4474 45.9694 52.4663 45.9484L53.1815 45.9348C56.276 45.8705 58.7489 43.3948 58.8132 40.3004L58.8268 39.5851C58.8478 38.5676 59.381 37.6457 60.2518 37.1174L60.866 36.7461C63.5118 35.1444 64.4156 31.7649 62.9243 29.0534L62.5803 28.4256C62.0898 27.5324 62.0898 26.4687 62.5803 25.5756L62.9243 24.9505C64.417 22.239 63.5119 18.8568 60.8633 17.255L60.2518 16.8865C59.3796 16.3582 58.8478 15.4335 58.8268 14.416L58.8132 13.7008C58.7475 10.6049 56.2746 8.13343 53.1815 8.06913L52.4663 8.05275C51.4488 8.03319 50.5241 7.50133 49.9958 6.62778L49.6273 6.01902C48.0255 3.37042 44.6461 2.46807 41.9346 3.95799L41.3067 4.30195C40.415 4.79394 39.3499 4.79394 38.4567 4.30195L37.8289 3.95799C36.926 3.46042 35.9501 3.23026 34.9898 3.24005Z" fill="#EC5E28"/>
<path d="M34.9898 3.24005L34.9695 1.24015L34.9681 1.24016L34.9898 3.24005ZM30.1389 6.01629L28.4277 4.98113L28.4273 4.98171L30.1389 6.01629ZM29.7677 6.63051L31.4783 7.66675L31.4793 7.66509L29.7677 6.63051ZM27.2972 8.05275L27.256 6.05317L27.2514 6.05328L27.2972 8.05275ZM26.5819 8.06913L26.6235 10.0687L26.6277 10.0686L26.5819 8.06913ZM20.9503 13.7008L18.9507 13.6592L18.9506 13.6626L20.9503 13.7008ZM20.9366 14.416L22.9362 14.4572L22.9363 14.4542L20.9366 14.416ZM19.5117 16.8865L20.5407 18.6015L20.5491 18.5964L19.5117 16.8865ZM18.8974 17.255L17.8684 15.54L17.8617 15.5441L18.8974 17.255ZM16.8391 24.9505L15.0867 25.9143L15.0869 25.9146L16.8391 24.9505ZM17.1831 25.5756L18.9361 24.6127L18.9354 24.6115L17.1831 25.5756ZM17.1831 28.4256L18.9354 29.3897L18.9361 29.3884L17.1831 28.4256ZM16.8391 29.0507L18.5912 30.0152L18.5914 30.0148L16.8391 29.0507ZM18.9002 36.7461L17.8652 38.4575L17.8678 38.4591L18.9002 36.7461ZM19.5117 37.1146L20.5479 35.404L20.544 35.4017L19.5117 37.1146ZM20.9366 39.5851L22.9363 39.547L22.9362 39.5439L20.9366 39.5851ZM20.9503 40.3004L18.9506 40.3385L18.9507 40.3428L20.9503 40.3004ZM26.5847 45.932L26.6305 43.9325L26.6262 43.9325L26.5847 45.932ZM27.2999 45.9484L27.2541 47.9479L27.2614 47.948L27.2999 45.9484ZM29.7677 47.3734L28.0563 48.4084L28.0602 48.4147L29.7677 47.3734ZM30.1389 47.9821L31.8508 46.948L31.8464 46.9408L30.1389 47.9821ZM37.8289 50.0459L38.7926 51.7984L38.7956 51.7967L37.8289 50.0459ZM38.4567 49.6992L37.4906 47.948L37.49 47.9484L38.4567 49.6992ZM41.3067 49.7019L40.3417 51.4538L40.3517 51.4592L41.3067 49.7019ZM41.9346 50.0432L42.8988 48.2909L42.8896 48.2859L41.9346 50.0432ZM49.6245 47.9849L47.915 46.9469L47.9132 46.9498L49.6245 47.9849ZM49.9958 47.3734L51.7054 48.4113L51.7064 48.4096L49.9958 47.3734ZM52.4663 45.9484L52.4281 43.9488L52.4251 43.9488L52.4663 45.9484ZM53.1815 45.9348L53.2197 47.9344L53.2231 47.9343L53.1815 45.9348ZM58.8132 40.3004L60.8127 40.3419L60.8128 40.3385L58.8132 40.3004ZM58.8268 39.5851L56.8272 39.5439L56.8272 39.547L58.8268 39.5851ZM60.2518 37.1174L59.2172 35.4057L59.2143 35.4075L60.2518 37.1174ZM60.866 36.7461L61.9006 38.4577L61.9018 38.457L60.866 36.7461ZM62.9243 29.0534L61.1703 30.0143L61.1719 30.0173L62.9243 29.0534ZM62.5803 28.4256L64.3344 27.4646L64.3333 27.4627L62.5803 28.4256ZM62.5803 25.5756L60.8281 24.6115L60.8274 24.6127L62.5803 25.5756ZM62.9243 24.9505L61.1723 23.9859L61.172 23.9863L62.9243 24.9505ZM60.8633 17.255L61.8982 15.5437L61.8956 15.5421L60.8633 17.255ZM60.2518 16.8865L59.2156 18.5971L59.2194 18.5995L60.2518 16.8865ZM58.8268 14.416L56.8272 14.4542L56.8272 14.4572L58.8268 14.416ZM58.8132 13.7008L60.8128 13.6626L60.8127 13.6584L58.8132 13.7008ZM53.1815 8.06913L53.1357 10.0686L53.1399 10.0687L53.1815 8.06913ZM52.4663 8.05275L52.5121 6.05326L52.5047 6.05312L52.4663 8.05275ZM49.9958 6.62778L51.7071 5.59275L51.7067 5.59203L49.9958 6.62778ZM49.6273 6.01902L47.9159 7.05398L47.9163 7.05477L49.6273 6.01902ZM41.9346 3.95799L42.8955 5.71203L42.8977 5.71081L41.9346 3.95799ZM41.3067 4.30195L40.3458 2.54791L40.3405 2.5508L41.3067 4.30195ZM38.4567 4.30195L39.4217 2.55015L39.4177 2.54791L38.4567 4.30195ZM37.8289 3.95799L36.8636 5.70963L36.868 5.71203L37.8289 3.95799ZM34.9681 1.24016C32.3738 1.26842 29.8652 2.60458 28.4277 4.98113L31.8502 7.05145C32.5482 5.89747 33.7567 5.2536 35.0116 5.23993L34.9681 1.24016ZM28.4273 4.98171L28.056 5.59593L31.4793 7.66509L31.8505 7.05087L28.4273 4.98171ZM28.057 5.59427C27.886 5.87665 27.5949 6.0462 27.256 6.05318L27.3383 10.0523C29.0373 10.0174 30.5927 9.12866 31.4783 7.66675L28.057 5.59427ZM27.2514 6.05328L26.5362 6.06966L26.6277 10.0686L27.3429 10.0522L27.2514 6.05328ZM26.5404 6.06956C22.3739 6.15613 19.0373 9.49276 18.9507 13.6592L22.9498 13.7423C22.9919 11.7199 24.6011 10.1107 26.6235 10.0687L26.5404 6.06956ZM18.9506 13.6626L18.937 14.3778L22.9363 14.4542L22.9499 13.739L18.9506 13.6626ZM18.9371 14.3748C18.9302 14.7077 18.7603 15.0031 18.4742 15.1766L20.5491 18.5964C22.0046 17.7133 22.9011 16.1594 22.9362 14.4572L18.9371 14.3748ZM18.4827 15.1715L17.8684 15.5401L19.9264 18.97L20.5406 18.6015L18.4827 15.1715ZM17.8617 15.5441C14.297 17.7022 13.0795 22.2649 15.0867 25.9143L18.5916 23.9866C17.6161 22.213 18.2063 20.0114 19.9332 18.966L17.8617 15.5441ZM15.0869 25.9146L15.4308 26.5397L18.9354 24.6115L18.5914 23.9863L15.0869 25.9146ZM15.4301 26.5385C15.5913 26.8319 15.5913 27.1692 15.4301 27.4627L18.9361 29.3884C19.756 27.8957 19.756 26.1055 18.9361 24.6127L15.4301 26.5385ZM15.4308 27.4614L15.0869 28.0866L18.5914 30.0148L18.9354 29.3897L15.4308 27.4614ZM15.0871 28.0862C13.0773 31.7369 14.2979 36.3001 17.8652 38.4575L19.9351 35.0347C18.2053 33.9886 17.6156 31.7874 18.5912 30.0152L15.0871 28.0862ZM17.8678 38.4591L18.4793 38.8276L20.544 35.4017L19.9325 35.0332L17.8678 38.4591ZM18.4754 38.8253C18.7605 38.9979 18.9302 39.292 18.9371 39.6263L22.9362 39.5439C22.9012 37.8433 22.0072 36.288 20.5479 35.404L18.4754 38.8253ZM18.937 39.6233L18.9506 40.3385L22.9499 40.2622L22.9363 39.547L18.937 39.6233ZM18.9507 40.3428C19.0392 44.5111 22.3791 47.845 26.5431 47.9316L26.6262 43.9325C24.6041 43.8904 22.9928 42.2814 22.9498 40.2579L18.9507 40.3428ZM26.5389 47.9315L27.2541 47.9479L27.3457 43.9489L26.6305 43.9325L26.5389 47.9315ZM27.2614 47.948C27.5912 47.9544 27.8824 48.1208 28.0563 48.4084L31.479 46.3384C30.5963 44.8789 29.0436 43.9816 27.3383 43.9488L27.2614 47.948ZM28.0602 48.4147L28.4314 49.0235L31.8464 46.9408L31.4752 46.332L28.0602 48.4147ZM28.427 49.0162C29.8798 51.4212 32.428 52.7611 35.0526 52.7611V48.7611C33.7834 48.7611 32.5561 48.1156 31.8508 46.948L28.427 49.0162ZM35.0526 52.7611C36.3199 52.7611 37.6077 52.45 38.7926 51.7984L36.8652 48.2934C36.2862 48.6118 35.6639 48.7611 35.0526 48.7611V52.7611ZM38.7956 51.7967L39.4235 51.45L37.49 47.9484L36.8621 48.2951L38.7956 51.7967ZM39.4229 51.4504C39.7091 51.2925 40.0452 51.2904 40.3417 51.4537L42.2717 47.9501C40.782 47.1295 38.9879 47.122 37.4906 47.948L39.4229 51.4504ZM40.3517 51.4592L40.9795 51.8004L42.8896 48.2859L42.2617 47.9447L40.3517 51.4592ZM40.9703 51.7954C44.619 53.8032 49.1795 52.5849 51.3358 49.02L47.9132 46.9498C46.8689 48.6764 44.6704 49.2658 42.8988 48.2909L40.9703 51.7954ZM51.3341 49.0228L51.7054 48.4113L48.2862 46.3354L47.915 46.9469L51.3341 49.0228ZM51.7064 48.4096C51.8794 48.1241 52.1723 47.9549 52.5074 47.948L52.4251 43.9488C50.7225 43.9839 49.1688 44.8784 48.2852 46.3371L51.7064 48.4096ZM52.5045 47.948L53.2197 47.9344L53.1433 43.9351L52.4281 43.9488L52.5045 47.948ZM53.2231 47.9343C57.3908 47.8477 60.7262 44.5071 60.8127 40.3419L56.8136 40.2588C56.7716 42.2825 55.1612 43.8932 53.14 43.9352L53.2231 47.9343ZM60.8128 40.3385L60.8265 39.6233L56.8272 39.547L56.8135 40.2622L60.8128 40.3385ZM60.8264 39.6263C60.8332 39.2956 61.0014 39.0019 61.2892 38.8272L59.2143 35.4075C57.7607 36.2895 56.8624 37.8397 56.8272 39.5439L60.8264 39.6263ZM61.2864 38.829L61.9006 38.4577L59.8314 35.0345L59.2172 35.4057L61.2864 38.829ZM61.9018 38.457C65.4661 36.2992 66.6841 31.7394 64.6767 28.0896L61.1719 30.0173C62.1471 31.7905 61.5576 33.9895 59.8302 35.0352L61.9018 38.457ZM64.6783 28.0925L64.3344 27.4646L60.8263 29.3865L61.1703 30.0143L64.6783 28.0925ZM64.3333 27.4627C64.1721 27.1692 64.1721 26.8319 64.3333 26.5385L60.8274 24.6127C60.0074 26.1055 60.0074 27.8957 60.8274 29.3884L64.3333 27.4627ZM64.3326 26.5397L64.6766 25.9146L61.172 23.9863L60.8281 24.6115L64.3326 26.5397ZM64.6764 25.915C66.6862 22.2642 65.4656 17.701 61.8982 15.5437L59.8283 18.9664C61.5582 20.0126 62.1479 22.2137 61.1723 23.9859L64.6764 25.915ZM61.8956 15.5421L61.2842 15.1736L59.2194 18.5995L59.8309 18.968L61.8956 15.5421ZM61.288 15.1759C61.003 15.0032 60.8333 14.7092 60.8264 14.3748L56.8272 14.4572C56.8623 16.1578 57.7563 17.7132 59.2156 18.5971L61.288 15.1759ZM60.8265 14.3779L60.8128 13.6626L56.8135 13.739L56.8272 14.4542L60.8265 14.3779ZM60.8127 13.6584C60.7243 9.49132 57.3883 6.15614 53.2231 6.06957L53.1399 10.0687C55.1609 10.1107 56.7707 11.7185 56.8136 13.7432L60.8127 13.6584ZM53.2273 6.06966L52.5121 6.05328L52.4205 10.0522L53.1357 10.0686L53.2273 6.06966ZM52.5047 6.05312C52.1729 6.04674 51.88 5.87854 51.7071 5.59275L48.2844 7.6628C49.1682 9.12412 50.7247 10.0196 52.4278 10.0524L52.5047 6.05312ZM51.7067 5.59203L51.3382 4.98327L47.9163 7.05477L48.2849 7.66353L51.7067 5.59203ZM51.3386 4.98406C49.1806 1.41564 44.6204 0.200114 40.9714 2.20518L42.8977 5.71081C44.6717 4.73602 46.8704 5.32521 47.9159 7.05398L51.3386 4.98406ZM40.9737 2.20395L40.3458 2.54791L42.2676 6.05599L42.8955 5.71203L40.9737 2.20395ZM40.3405 2.5508C40.0507 2.71073 39.7146 2.71146 39.4217 2.55016L37.4918 6.05375C38.9852 6.87641 40.7793 6.87714 42.2729 6.05311L40.3405 2.5508ZM39.4177 2.54791L38.7898 2.20395L36.868 5.71203L37.4958 6.05599L39.4177 2.54791ZM38.7942 2.20636C37.582 1.53836 36.2654 1.22694 34.9695 1.24015L35.0102 5.23994C35.6347 5.23358 36.27 5.38248 36.8636 5.70962L38.7942 2.20636Z" fill="white" mask="url(#path-2-inside-1_388_4389)"/>
<rect x="0.5" y="14.6201" width="78.76" height="26.92" rx="2.5" fill="black" stroke="white"/>
<path d="M18.7267 29.3418C18.7267 27.644 17.5473 26.7368 16.044 26.7368H15.0072V24.106H18.2601V22.8748H13.0113V27.7607H14.7221C15.9014 27.7607 16.6142 28.3698 16.6142 29.4844C16.6142 30.6248 15.9403 31.2469 14.7739 31.2469C14.0481 31.2469 13.3742 30.9877 12.791 30.6119V32.1023C13.3483 32.3226 14.1259 32.4652 15.0849 32.4652C17.1197 32.4652 18.7267 31.3765 18.7267 29.3418Z" fill="white" fill-opacity="0.92"/>
<path d="M26.6393 27.644C26.6393 24.2615 25.3692 22.81 23.166 22.81C20.9758 22.81 19.7057 24.2615 19.7057 27.644C19.7057 31.0136 20.9758 32.4652 23.166 32.4652C25.3692 32.4652 26.6393 31.0136 26.6393 27.644ZM21.8182 27.644C21.8182 24.7669 22.3107 23.9764 23.166 23.9764C24.0344 23.9764 24.5268 24.7669 24.5268 27.644C24.5268 30.5212 24.0344 31.2988 23.166 31.2988C22.3107 31.2988 21.8182 30.5212 21.8182 27.644Z" fill="white" fill-opacity="0.92"/>
<path d="M34.7326 27.644C34.7326 24.2615 33.4625 22.81 31.2593 22.81C29.069 22.81 27.799 24.2615 27.799 27.644C27.799 31.0136 29.069 32.4652 31.2593 32.4652C33.4625 32.4652 34.7326 31.0136 34.7326 27.644ZM29.9114 27.644C29.9114 24.7669 30.4039 23.9764 31.2593 23.9764C32.1276 23.9764 32.6201 24.7669 32.6201 27.644C32.6201 30.5212 32.1276 31.2988 31.2593 31.2988C30.4039 31.2988 29.9114 30.5212 29.9114 27.644Z" fill="white" fill-opacity="0.92"/>
<path d="M41.383 32.4004C44.636 32.4004 46.269 30.8063 46.269 27.5144C46.269 24.3911 44.947 22.7192 41.3312 22.7192H38.8947V32.4004H41.383ZM40.9813 23.9245H41.5904C43.0808 23.9245 44.0787 24.7669 44.0787 27.5015C44.0787 30.4175 43.1067 31.1951 41.6682 31.1951H40.9813V23.9245Z" fill="white" fill-opacity="0.92"/>
<path d="M50.1959 31.234C49.4701 31.234 49.1461 30.8711 49.1461 30.1842C49.1461 29.4973 49.4442 29.1992 50.1829 29.1344L51.2975 29.0308V30.91C51.0512 31.0655 50.6883 31.234 50.1959 31.234ZM51.3752 32.4004H53.3322V27.2293C53.3322 25.5186 52.2565 24.6762 50.1311 24.6762C49.2109 24.6762 48.3555 24.8317 47.8242 25.0132V26.4776C48.4333 26.1666 49.1591 25.9463 49.8848 25.9463C50.8439 25.9463 51.2975 26.4258 51.2975 27.3071V27.9162L49.3016 28.2272C47.8631 28.4476 47.1891 29.1604 47.1891 30.3656C47.1891 31.6616 47.9927 32.4652 49.3146 32.4652C50.4291 32.4652 51.0383 32.0116 51.3752 31.6746V32.4004Z" fill="white" fill-opacity="0.92"/>
<path d="M59.5639 31.1044L61.4819 24.741H59.849L58.9029 28.0976C58.5271 29.4714 58.2549 30.586 58.229 30.8063H58.1771C58.1383 30.573 57.8402 29.4714 57.4514 28.0976L56.4794 24.741H54.2762L56.7386 32.1671H57.6328C57.244 33.1002 56.6867 33.6186 55.7018 33.6186C55.3778 33.6186 55.0797 33.5797 54.7427 33.476V34.772C55.0797 34.8498 55.3778 34.8887 55.7536 34.8887C57.8143 34.8887 58.8381 33.476 59.5639 31.1044Z" fill="white" fill-opacity="0.92"/>
<path d="M67.1665 30.1064C67.1665 28.0328 64.121 27.7348 64.121 26.5684C64.121 26.1666 64.419 25.8815 65.1059 25.8815C65.728 25.8815 66.4278 26.1018 66.9203 26.3999V24.9484C66.4797 24.7928 65.8187 24.6762 65.0541 24.6762C63.2785 24.6762 62.1899 25.6352 62.1899 26.9183C62.1899 29.1733 65.2355 29.2511 65.2355 30.5082C65.2355 30.9877 64.8597 31.2728 64.1339 31.2728C63.4341 31.2728 62.6824 30.9877 62.164 30.6248V32.1412C62.5398 32.3096 63.3045 32.4652 64.108 32.4652C65.9742 32.4652 67.1665 31.532 67.1665 30.1064Z" fill="white" fill-opacity="0.92"/>
</svg>
