<svg width="23" height="23" viewBox="0 0 23 23" fill="none" xmlns="http://www.w3.org/2000/svg">
<path d="M3.07663 0.590861L1.12678 0.60618C0.978457 0.605358 0.83145 0.633989 0.69428 0.690414C0.557109 0.746838 0.432506 0.829933 0.327694 0.93488C0.222882 1.03983 0.139948 1.16454 0.0837009 1.30178C0.0274536 1.43902 -0.000987714 1.58607 2.61835e-05 1.73439C0.00104008 1.88271 0.031489 2.02935 0.0896073 2.16581C0.147726 2.30227 0.232357 2.42584 0.338594 2.52934C0.44483 2.63284 0.570558 2.71423 0.708487 2.76877C0.846416 2.82332 0.993801 2.84993 1.1421 2.84708L2.34133 2.83833L6.03094 11.6925L4.68946 13.8371C3.75013 15.3371 4.89231 17.3976 6.6612 17.3976H19.0518C19.2003 17.3997 19.3477 17.3723 19.4855 17.3169C19.6233 17.2616 19.7487 17.1794 19.8544 17.0751C19.9601 16.9709 20.0441 16.8467 20.1014 16.7097C20.1587 16.5727 20.1882 16.4257 20.1882 16.2772C20.1882 16.1287 20.1587 15.9817 20.1014 15.8447C20.0441 15.7077 19.9601 15.5835 19.8544 15.4793C19.7487 15.375 19.6233 15.2928 19.4855 15.2374C19.3477 15.1821 19.2003 15.1546 19.0518 15.1567H6.6612C6.53652 15.1567 6.52215 15.1322 6.58898 15.0254H6.59117L7.90858 12.9158H16.2748C17.0882 12.9158 17.839 12.474 18.2334 11.7626L22.2687 4.49494C22.6844 3.74872 22.1443 2.83177 21.2905 2.83177H4.76606L4.12048 1.2802C4.03475 1.07454 3.88964 0.899103 3.7037 0.776314C3.51776 0.653525 3.29944 0.588958 3.07663 0.590861ZM6.72685 18.5181C6.13252 18.5181 5.56254 18.7542 5.14229 19.1744C4.72204 19.5947 4.48595 20.1647 4.48595 20.759C4.48595 21.3533 4.72204 21.9233 5.14229 22.3436C5.56254 22.7638 6.13252 22.9999 6.72685 22.9999C7.32117 22.9999 7.89116 22.7638 8.31141 22.3436C8.73166 21.9233 8.96776 21.3533 8.96776 20.759C8.96776 20.1647 8.73166 19.5947 8.31141 19.1744C7.89116 18.7542 7.32117 18.5181 6.72685 18.5181ZM17.9314 18.5181C17.337 18.5181 16.7671 18.7542 16.3468 19.1744C15.9266 19.5947 15.6905 20.1647 15.6905 20.759C15.6905 21.3533 15.9266 21.9233 16.3468 22.3436C16.7671 22.7638 17.337 22.9999 17.9314 22.9999C18.5257 22.9999 19.0957 22.7638 19.5159 22.3436C19.9362 21.9233 20.1723 21.3533 20.1723 20.759C20.1723 20.1647 19.9362 19.5947 19.5159 19.1744C19.0957 18.7542 18.5257 18.5181 17.9314 18.5181Z" fill="black"/>
</svg>
