<svg width="24" height="24" viewBox="0 0 24 24" fill="none" xmlns="http://www.w3.org/2000/svg">
<path d="M15 16H2V6H15V8V12V14V16Z" fill="#EC5E28"/>
<path d="M18 16.8C18.7 16.8 19.3 17.4 19.3 18.1C19.3 18.8 18.7 19.4 18 19.4C17.3 19.4 16.7 18.8 16.7 18.1C16.7 17.4 17.3 16.8 18 16.8ZM18 15C16.3 15 15 16.3 15 18C15 19.7 16.3 21 18 21C19.7 21 21 19.7 21 18C21 16.3 19.7 15 18 15ZM6 16.8C6.7 16.8 7.3 17.4 7.3 18.1C7.3 18.8 6.7 19.3 6 19.3C5.3 19.3 4.8 18.7 4.8 18C4.8 17.3 5.3 16.8 6 16.8ZM6 15C4.3 15 3 16.3 3 18C3 19.7 4.3 21 6 21C7.7 21 9 19.7 9 18C9 16.3 7.7 15 6 15Z" fill="black"/>
<path d="M23 18H20V16H21V13.5L18.8 9H15V7H18.8C19.6 7 20.2 7.4 20.6 8.1L23 13V18Z" fill="black"/>
<path d="M1 5V18H4V16H3V7H14V16H16V5H1Z" fill="black"/>
<path d="M8 16H16V18H8V16Z" fill="black"/>
</svg>
