<svg width="18" height="16" viewBox="0 0 18 16" fill="none" xmlns="http://www.w3.org/2000/svg">
<path d="M12.7493 0.5C10.3368 0.5 8.99935 2.24167 8.99935 2.24167C8.99935 2.24167 7.66185 0.5 5.24935 0.5C2.71768 0.5 0.666016 2.55167 0.666016 5.08333C0.666016 8.55917 4.75935 11.9275 5.90018 12.9917C7.21435 14.2167 8.99935 15.7917 8.99935 15.7917C8.99935 15.7917 10.7843 14.2167 12.0985 12.9917C13.2393 11.9275 17.3327 8.55917 17.3327 5.08333C17.3327 2.55167 15.281 0.5 12.7493 0.5ZM11.3418 11.425C11.1943 11.5583 11.066 11.6742 10.9618 11.7717C10.336 12.355 9.59602 13.0242 8.99935 13.5592C8.40268 13.0242 7.66185 12.3542 7.03685 11.7717C6.93185 11.6742 6.80352 11.5575 6.65685 11.425C5.47352 10.3558 2.33268 7.51583 2.33268 5.08333C2.33268 3.475 3.64102 2.16667 5.24935 2.16667C6.77185 2.16667 7.65435 3.22917 7.67768 3.25667L8.99935 4.66667L10.321 3.25667C10.3293 3.24583 11.2268 2.16667 12.7493 2.16667C14.3577 2.16667 15.666 3.475 15.666 5.08333C15.666 7.51583 12.5252 10.3558 11.3418 11.425Z" fill="black"/>
</svg>
