<svg width="20" height="20" viewBox="0 0 20 20" fill="none" xmlns="http://www.w3.org/2000/svg">
<path d="M8 0C3.59357 0 0 3.59357 0 8C0 12.4064 3.59357 16 8 16C10.0239 16 11.8717 15.237 13.2832 13.9902L14 14.707V16L17.5859 19.5859C18.1379 20.1379 19.0339 20.1379 19.5859 19.5859C20.1379 19.0339 20.1379 18.1379 19.5859 17.5859L16 14H14.707L13.9902 13.2832C15.237 11.8717 16 10.0239 16 8C16 3.59357 12.4064 0 8 0ZM8 2C11.3256 2 14 4.67445 14 8C14 11.3256 11.3256 14 8 14C4.67445 14 2 11.3256 2 8C2 4.67445 4.67445 2 8 2Z" fill="black"/>
</svg>
