<svg width="20" height="19" viewBox="0 0 20 19" fill="none" xmlns="http://www.w3.org/2000/svg">
<path d="M9.60349 2.39484L9.60326 2.39453L9.60297 2.3942L9.59412 2.38316C9.58536 2.37239 9.57095 2.35498 9.55096 2.33182C9.51095 2.28549 9.44874 2.21639 9.36497 2.13177C9.19711 1.96222 8.94449 1.73225 8.6121 1.49852C7.94706 1.03088 6.9741 0.555712 5.72344 0.504602L9.60349 2.39484ZM9.60349 2.39484L9.60369 2.3951L9.60399 2.39549L9.60419 2.39575L9.99983 2.91099L10.3955 2.39575L10.3957 2.39549L10.396 2.3951L10.3962 2.39484L10.3964 2.39453L10.3967 2.3942L10.4055 2.38316C10.4143 2.37239 10.4287 2.35498 10.4487 2.33182C10.4887 2.28549 10.5509 2.21639 10.6347 2.13177C10.8025 1.96222 11.0552 1.73225 11.3876 1.49852C12.0526 1.03088 13.0256 0.555712 14.2762 0.504602L9.60349 2.39484ZM1.50955 2.61371L1.50955 2.61371C-0.223725 4.9044 0.496687 7.41269 2.0181 9.68578C3.32363 11.6363 5.13106 13.2719 6.17573 14.2173C6.34666 14.372 6.49717 14.5082 6.62172 14.6242C7.64642 15.5792 8.91296 16.7152 9.67035 17.3896L9.67062 17.3899C9.85999 17.5587 10.1387 17.5587 10.328 17.3899L10.3283 17.3896C11.0857 16.7152 12.3522 15.5792 13.3769 14.6242C13.5016 14.5081 13.6522 14.3717 13.8233 14.2169C14.8681 13.2715 16.6755 11.6361 17.9809 9.68577C19.5025 7.41268 20.2229 4.90444 18.4891 2.61376L18.489 2.61354C17.4647 1.25858 15.9284 0.437195 14.2762 0.504601L1.50955 2.61371ZM1.50955 2.61371C2.53493 1.25856 4.07134 0.437197 5.72342 0.504601L1.50955 2.61371Z" fill="black" stroke="black"/>
</svg>
